<?xml version="1.0" encoding="utf-8"?>
<!-- Generator: Adobe Illustrator 24.0.0, SVG Export Plug-In . SVG Version: 6.00 Build 0)  -->
<svg version="1.1" id="Layer_1" xmlns="http://www.w3.org/2000/svg" xmlns:xlink="http://www.w3.org/1999/xlink" x="0px" y="0px"
	 viewBox="0 0 608.8 249.2" style="enable-background:new 0 0 608.8 249.2;" xml:space="preserve">
<style type="text/css">
	.st0{fill:#004B73;}
	.st1{fill:#121A22;}
	.st2{fill:#FBD708;}
	.st3{fill:#FBFBFB;}
	.st4{fill:#FEFEFE;}
	.st5{fill:#FAFAFA;}
	.st6{fill:#002135;}
	.st7{fill:#002438;}
	.st8{fill:#001F32;}
	.st9{fill:#F7F8F7;}
	.st10{fill:#002437;}
	.st11{fill:#042534;}
	.st12{fill:#082635;}
	.st13{fill:#243840;}
	.st14{fill:#273749;}
	.st15{fill:#002D3D;}
	.st16{fill:#A0A8AD;}
	.st17{fill:#A1A8AD;}
	.st18{fill:#9DA4A8;}
	.st19{fill:#9EA5A9;}
	.st20{fill:#A0A8AC;}
	.st21{fill:#A0A7AC;}
	.st22{fill:#A1A8AC;}
	.st23{fill:#A2A9AD;}
	.st24{fill:#A1A9AD;}
	.st25{fill:#A2A9AE;}
	.st26{fill:#9DA4A9;}
	.st27{fill:#9FA6AA;}
	.st28{fill:#9CA3A7;}
	.st29{fill:#9FA6AB;}
	.st30{fill:#9EA5AA;}
	.st31{fill:#9FA7AB;}
	.st32{fill:#A0A7AB;}
	.st33{fill:#A0A6AB;}
	.st34{fill:#9AA1A6;}
	.st35{fill:#949BA1;}
	.st36{fill:#9EA6AB;}
	.st37{fill:#A0A7AD;}
	.st38{fill:#9AA1A5;}
	.st39{fill:#9BA2A6;}
	.st40{fill:#9DA5A9;}
	.st41{fill:#9EA6AA;}
	.st42{fill:#9AA1A7;}
	.st43{fill:#9BA3A8;}
	.st44{fill:#9CA3AA;}
	.st45{fill:#9CA5AC;}
	.st46{fill:#959DA5;}
	.st47{fill:#9CA4AF;}
	.st48{fill:#7A808A;}
	.st49{fill:#99A3AC;}
	.st50{fill:#FFFFFF;stroke:#FFFFFF;stroke-miterlimit:10;}
	.st51{fill:#FFFFFF;stroke:#FFFFFF;stroke-width:3;stroke-miterlimit:10;}
</style>
<g>
	<path class="st0" d="M177.8,94.8c-1.4,2.4-1.9,4.9-1.9,7.7c-0.1,25.6-0.6,51.3-0.3,76.9c0.1,12.7-9.5,24.7-21.9,27.9
		c-2.8,0.7-5.6,1.1-8.5,1.1c-4.6-0.1-9.2,0.1-13.8,0c-6.4-0.1-10.7,0.4-14.7,7.4c-2.2-5.3-6.5-7.3-11.9-7.3c-4.7,0-9.3-0.2-14,0
		c-7.7,0.3-14.7-1.5-21-5.9c-0.5-0.2-1.1-0.4-1.5-1c-0.2-0.2-0.4-0.3-0.5-0.5c-1-0.3-1.4-1.2-1.9-1.9c-3.1-4-6-8.1-7-13.2
		c-0.4-2.3-0.7-4.5-0.7-6.8c-0.2-24.7-0.2-49.3-0.2-74c0-7-2-13-7.1-17.8c-0.2-0.1-0.2-0.4-0.6-1c10.3,0,20.3,0,30.3,0
		c0.7-0.5,1.3-0.5,2,0c0.2,0,0.3,0,0.5,0c1.1-0.7,2.3-0.8,3.6-0.7c19.9,0.2,39.8,0.1,59.7,0c1.4,0,2.8,0.3,4.1,0.8
		c10.9,0,21.9,0.1,32.8,0.1c0.4,1.3-0.9,1.8-1.4,2.6c-0.8,1.1-1.7,2.1-2.4,3.4c-0.3,0.5-0.5,1-0.8,1.4
		C178.3,94.1,178.1,94.6,177.8,94.8z"/>
	<path class="st1" d="M83,83.6L83,83.6l-0.3-0.1c-1.6-0.6-1.1-2.6-2.3-3.4c-0.1-0.2-0.2-0.4-0.3-0.6c-0.5-0.9-0.8-1.8-1-2.8
		C75,68.5,71.2,60,66.4,52.2c-1.4-2.3-3.3-4.5-4.8-7c-0.6-1-0.4-1.5,0.6-2c2.3-1.1,4.6-2.2,6.7-3.5c1.2-0.7,1.6,0,2.1,0.7
		c1.9,1.7,2.8,4,3.2,6.5c0.1,0.5-0.2,1.2,0.5,1.5c0.2,0.1,0.5,0,0.7-0.2c0.5-0.7,0.2-1.2-0.2-1.7c-2-2.2-2.3-4.9-2.5-7.6
		c-0.1-1.1,0.4-1.3,1.4-1.5c1.8-0.4,3.6-1,5.4-1.4c3.2-0.8,3.3-0.9,4,2.4c0.4,1.9,2,3.7,0.5,5.8c-0.3,0.5-0.1,2.3,1,2.4
		c0.9,0.1,2.4,0.1,2.9-0.8c0.5-0.9,0.5-2.2-0.4-3.1c-0.8-0.8-2.4-7-2.1-8c0.2-0.5,0.5-0.5,1-0.6c2.6-0.4,5.2-0.6,7.7-1.1
		c1.2-0.2,1.6,0.1,1.7,1.3c0.2,1.9,0.5,3.7,0.8,5.6c0.1,0.6,0.2,1-0.4,1.5c-1.1,1-0.7,2.5,0,3.2c0.7,0.8,2.4,0.5,3.2-0.1
		c1.1-0.8,0.7-2.9,0.2-3.3c-2-1.2-1.2-3.1-1.3-4.6c-0.2-4.4-0.2-4.5,4.3-4.5c2,0,4-0.9,6,0c1.1,2.8,0.9,5.7,0.4,8.5
		c0,0.2-0.1,0.3-0.2,0.4c-0.3,0.7-0.4,1.4,0.2,2c0.3,0.3,0.8,0.4,1.1,0.1c0.8-0.6,0.9-1.5,0.4-2.2c-1.4-2.2-1.2-4.7-1.1-7.1
		c0-0.6,0-1.2,0.3-1.7c0.3-0.8,0.9-1.6,1.8-1.4c3,0.4,6-0.3,9,0.4l0,0c2.3,2.7,1.2,5.7,0.6,8.6c-0.1,0.7-0.7,1.3-0.8,2
		c0,0.6,0,1.2,0.6,1.5c0.4,0.3,0.9,0.3,1.4-0.1c0.5-0.4,0.6-1.1,0.3-1.6c-1.3-2.2-0.6-4.6-0.7-7c0-0.9-0.1-1.8,0.7-2.5
		c3.2-0.8,6.5,0.3,9.7,0.1c0.6,0,0.8,0.4,0.8,1c-0.1,2.2-0.2,4.4-0.3,6.6c0,1.1-1.9,1-1.4,2.5c0.3,0.8-0.6,1.9,0.6,2.4
		c1,0.3,2.2,0.7,3.1,0c0.8-0.6,0.8-2.4,0.5-2.7c-1.8-1.7-0.5-3.5-0.3-5.2c0.6-4,0.7-4,4.9-3.3c0.9,0.1,1.8,0.2,2.7,0.3
		c3.5,0.6,3.6,0.7,2.7,4.3c-0.4,1.7,0.3,3.9-1.9,5.1c-0.6,0.3-0.9,2.2,0,2.8c0.8,0.6,2.3,1.2,3.1,0.4c0.6-0.6,1.2-1.8,0.3-3
		c-1-1.2,0.1-2.3,0.4-3.4c1.2-4.9,1.2-4.8,6.1-3.5c5.3,1.4,5.3,1.4,3.8,6.6c-0.3,1.2-0.1,2.8-2,3.1c-0.3,0.1-1.1,1.7-0.5,2.6
		c0.4,0.6,1.6,1.1,2.1,0.6c0.6-0.6,1.7-1.3,0.6-2.6c-0.6-0.8,0.4-1.6,0.8-2.3c1-1.7,1.3-4.5,2.9-4.8c1.5-0.3,3.5,1.4,5.2,2.3
		c3.9,2,4.4,2.4,1.8,5.9c-6.7,8.8-10.6,19-15.9,28.5c-0.4,0.8-0.7,1.6-1.1,2.4c-0.8,4.5-1.9,5.4-6.3,6.1c-6.2,0.9-12.4,1.3-18.6,1.3
		c-10.1,0-20.1,0.3-30.2-0.3C91.5,85.4,87.1,85.5,83,83.6z"/>
	<path class="st2" d="M74.2,193.5c-1,0.2-1.1,0-0.8-1c1.3-3.8,2.4-7.6,3.8-11.4c0.5-1.4,0.3-2.2-1-3c-3.6-2.5-7.1-5.1-11.2-8.1
		c5.1,0,9.4-0.1,13.8,0c1.5,0,2.1-0.4,2.6-1.8c1.2-3.9,2.5-7.8,3.7-11.6c0.3-0.8,0.4-1.2,1-0.2c1.2,1.9,1.3,4.2,2.4,6.2
		c0.6,0.9,0.7,1.9,1.1,2.9c0.2,0.7,0.1,1.5,0.7,2.2c0.3,0.6,0.3,1.4,1.1,1.7c0.5,0.1,1.1,0.1,1.6,0c1.3,0,2.7,0,4-0.1
		c0.3,0,0.5,0.1,0.6,0.3c2.3,0.9,4.7,0.2,7.1,0.4c1,0.1,1.1,0.2,0.4,0.9c-1.8,2.3-4.3,3.6-6.5,5.3c-5.7,4.2-4.8,2.8-2.9,8.9
		c0.7,2.3,1.4,4.6,2.2,7c0,0.6,1,1.2,0.1,1.9c-3.9-2.8-7.7-5.5-11.6-8.3c-2,0.3-3.4,1.9-5,3C79.1,190.3,77,192.4,74.2,193.5z"/>
	<path class="st3" d="M90.9,169.9c-0.8-0.4-0.6-1.3-0.9-1.9c0.1-0.3,0.1-0.6,0.4-0.8c8-11.3,16-22.7,24-34
		c7.3-10.4,14.7-20.8,22-31.3c1.1-1.5,2.2-2.2,4-2s3.6,0.1,5.4,0c1.3,0,1.1,0.5,0.6,1.3c-0.8,2.5-2.8,4.2-4.4,6.1
		c-8.8,10.7-17.5,21.5-26.2,32.3c-7.7,9.5-15.5,18.9-23,28.6C92.4,169,91.8,169.6,90.9,169.9z"/>
	<path class="st3" d="M89.4,165.9c-0.4-1-0.7-2.1-1.1-3.1c-0.2-0.3-0.1-0.4,0.2-0.6c5.3-8.9,10.6-17.8,15.8-26.7
		c6.5-11,12.9-22,19.3-33c1.1-1.8,2.2-2.9,4.4-2.5c1.2,0.2,2.4,0,3.7,0c1.2,0,0.8,0.7,0.5,1.3c-1,3.2-3.3,5.6-5,8.3
		c-10.6,16.3-21.4,32.4-32,48.7c-1.2,1.8-2.5,3.7-3.6,5.5C90.9,164.4,90.7,165.7,89.4,165.9z"/>
	<path class="st4" d="M123.7,133.9c1.3-1.9,2.8-3.6,4.5-5.2c1.1-0.1,2-0.3,2.3-1.7c0.2-1.4,1.3-2.1,2.6-2.1c1.1,0,1.6-0.3,1.8-1.4
		c0.2-1.8,0.5-3.7,3-3.5c0.3,0,0.8-0.3,0.7-0.5c-0.4-2.1,2-2.6,2.3-4.2c0.1-0.4,0.5-1,1-0.7c1.2,0.7,0.7-0.2,0.8-0.7
		c0.3-1.8,1.9-3,3.4-2.5c0.1,0.1,0.3,0.1,0.5,0.1c0.3-1.7-0.5-3.5,0.7-5.1c1.5-1.8,3-3.6,4.5-5.5c0.6-0.8,1.4-1,2.3-1
		c3.2,0,6.4,0.1,9.5,0c1.9-0.1,0.8,0.7,0.5,1.3c-1.5,2.5-3.7,4.4-5.6,6.4c-8.5,8.7-17.1,17.3-25.8,26c-0.6,0.6-1.2,1.1-1.9,1.6
		c-1.7,1.2-3.2,2.7-4.7,4.2c-0.5,0.4-0.9,1.1-1.6,0.8c-0.8-0.3-0.6-1-0.6-1.7c0-0.2,0.7-0.3,0.1-0.6
		C122.1,136.8,123.3,135.3,123.7,133.9z"/>
	<path class="st5" d="M123.7,133.9c0.1,1.6-1.2,3.8,2.3,4c-1.2,0.6-2,0.9-1.2,2c2.2-1.5,3.4-4.2,6.1-5.1c0.3,1.1-0.5,1.6-1.1,2.2
		c-1.7,1.8-3.5,3.5-5.3,5.3c-7.3,7.3-14.6,14.7-22,22c-1.8,1.8-3.3,3.8-5.3,5.4c-1.5,0.7-3,0.2-4.5,0.4c0-1.1,0.5-1.9,1.6-2.3
		c6.2-6.5,11.8-13.6,17.7-20.3C115.9,142.9,119.8,138.4,123.7,133.9z"/>
	<path class="st6" d="M94.3,167.7c-0.5,0.8-1,1.5-1.6,2.3c-0.6,0-1.2-0.1-1.8-0.1c18.3-22.7,36.6-45.3,54.9-68
		c0.2-0.2,0.4-0.5,0.7-0.7c1.2,0.2,0.8,0.7,0.3,1.3c-3.5,4.4-7.1,8.7-10.6,13.1c-7.4,9-14.7,18.1-22.1,27.1
		c-6.3,7.7-12.5,15.4-18.8,23.1C94.8,166.4,94.2,166.9,94.3,167.7z"/>
	<path class="st7" d="M91.3,163.5c3.9-6,7.8-12,11.7-18c9.4-14.3,18.7-28.5,28.1-42.7c0.4-0.5,0.8-1.1,1.1-1.6
		c1.5,0.4,0.4,1.1,0.1,1.5c-5.5,8.4-11.1,16.7-16.7,25.1c-8,12.1-15.9,24.2-23.9,36.2C91.4,164.1,91.1,164,91.3,163.5z"/>
	<path class="st8" d="M124.2,141.9c2.2-2.4,4.4-4.8,6.7-7.2c9.5-9.6,19-19.3,28.6-28.9c1.5-1.6,3.1-3.1,4.7-4.6
		c0.4,0.2,1.8-0.4,0.7,0.9c-0.7,0.8-1.5,1.5-2.2,2.3c-11.7,11.9-23.4,23.7-35.1,35.6c-0.9,0.9-1.8,1.7-2.7,2.5
		C124.3,142.6,124.1,142.4,124.2,141.9z"/>
	<path class="st9" d="M146.4,112c-0.6,0.2-1.1-2.1-2.1,0.2c-0.4,1-0.7,2-0.9,3.1c-0.1,0.4-0.3,0.8-0.8,0.9c-0.9,0.1-0.4-1-1.1-1.5
		c-0.4,1.3-0.1,2.9-1.9,3c-0.4,0-0.6,0.2-0.4,0.6c0.9,2.5-0.6,2.5-2.4,2.3c-1.9-0.1-1.2,1.7-1.4,2.5c-0.4,1.5-0.1,3.1-2.6,2.3
		c-0.7-0.2-1.8,0.5-1.8,2c0,1.8-1.4,2.3-2.8,1.3c6.2-7.6,12.6-15,19.1-22.3c0,1.8,0.1,3.6,0.1,5.4
		C147.4,113.2,146.9,112.7,146.4,112c0.1-0.3,0.2,0.1,0.2-0.2c0-0.3,0.1-0.6,0.1-0.9C146.6,111.3,146.7,111.7,146.4,112z"/>
	<path class="st10" d="M124.2,141.9c0.2,0.2,0.4,0.4,0.6,0.6c-7.7,7.7-15.3,15.5-23,23.2c-1.3,1.3-2.7,2.6-4.1,3.9
		c-0.2,0-0.3,0-0.5,0c0.6-1.8,2.1-2.8,3.3-4C108.4,157.6,116.3,149.8,124.2,141.9z"/>
	<path class="st11" d="M97.8,192.1c-1.3-3.8-2.6-7.7-3.9-11.5c-0.3-1-0.1-1.6,0.8-2.3c3.5-2.4,7-4.9,10.5-7.4c1,0,1.5,0.2,0.3,1.1
		c-3,2.1-6,4.4-9.1,6.5c-1.5,1-1.9,2.1-1.3,3.9c1.1,3.2,2.4,6.4,3.1,9.7C98.1,192.3,98,192.3,97.8,192.1z"/>
	<path class="st12" d="M74.2,193.5c3.6-2.6,7.1-5.3,10.7-7.9c0.6-0.4,1.1-0.7,1.6,0.1c-3.6,2.7-7.2,5.4-10.9,8.1
		C75.3,194,74.4,195.2,74.2,193.5z"/>
	<path class="st13" d="M88.5,162.2c-0.1,0.2-0.1,0.4-0.2,0.6c-1-2-1.6-4.2-2.1-6.3C87.9,158,88.1,160.1,88.5,162.2z"/>
	<path class="st14" d="M91.3,163.5c0.2,0.2,0.3,0.4,0.5,0.6c-0.5,1-1.5,1.8-1.4,3.1c-0.1,0.3-0.3,0.5-0.4,0.8
		c-0.3-0.7-0.7-1.3-0.6-2.1C90,165.1,90.7,164.3,91.3,163.5z"/>
	<path class="st15" d="M97.8,192.1c0.1,0,0.3,0,0.4,0c0.5,0.6,0.8,1.3,0.7,2.1c-0.3-0.1-0.6-0.2-0.9-0.3
		C98,193.4,97.9,192.7,97.8,192.1z"/>
	<path class="st16" d="M122.6,83.6c-1.1,0-2.3,0-3.4,0c-2.5,0-3.8-1.9-2.8-4.2c0.3-0.6,0.7-0.6,1.2-0.6c3.3,0.1,6.5,0.3,9.8,0.3
		c2,0,1.7,1.4,1.8,2.7c0.1,1.6-0.7,1.7-1.9,1.7C125.7,83.5,124.1,83.6,122.6,83.6L122.6,83.6z"/>
	<path class="st17" d="M108.1,83.6c-1.2,0-2.4,0-3.7,0c-1.3,0-2.7,0.4-2.7-1.9c0-2.1,1-2.5,2.7-2.5c2.9-0.1,5.7-0.1,8.6-0.3
		c1.5-0.1,1.9,0.6,1.7,1.8c-0.2,1.1,0.9,3-1.6,2.9C111.3,83.6,109.7,83.6,108.1,83.6L108.1,83.6z"/>
	<path class="st18" d="M146,64.5c0.5,0,0.9,0,1.2,0c3.4,0,4.3,1.1,3.5,4.6c-0.2,0.8-0.6,1-1.4,1c-1.4,0-2.8,0-4.2,0
		c-3.2,0-3,0-3.2-3.1C141.6,62.9,144.6,65.1,146,64.5z"/>
	<path class="st18" d="M136.5,64.5c0.5,0,0.8,0,1,0c3.4,0,4.4,1.4,3.5,4.7c-0.2,0.9-0.8,0.8-1.5,0.9c-1.4,0-2.8,0-4.1,0
		c-3.2,0-3,0-3.2-3.2C132,62.7,135.3,65.3,136.5,64.5z"/>
	<path class="st18" d="M107.8,64.5c0.2,0,0.5,0,0.7,0c3.3,0,4.4,1.5,3.5,4.8c-0.3,0.9-0.9,0.8-1.5,0.8c-1.9,0-3.7,0-5.6,0
		c-1.3,0-1.6-0.5-1.7-1.7C103,64.5,103,64.5,107.8,64.5z"/>
	<path class="st19" d="M127,64.5c0.2,0,0.5,0,0.7,0c3.4,0,4.4,1.4,3.5,4.8c-0.3,0.9-0.8,0.8-1.5,0.8c-1.7,0-3.4-0.1-5.1,0
		c-1.5,0.1-1.9-0.5-2-2C122.6,64.5,122.6,64.5,127,64.5z"/>
	<path class="st19" d="M117.2,64.5c0.6,0,1.2,0.1,1.7,0c2.2-0.4,2.7,0.6,2.7,2.7c0.1,2.4-0.7,3.3-3,2.9c-1.2-0.2-2.5-0.1-3.7,0
		c-1.4,0.1-2-0.3-2-1.9C112.9,64.5,112.8,64.5,117.2,64.5z"/>
	<path class="st19" d="M98,70.1c-0.6,0-1.2-0.1-1.7,0c-2.2,0.4-2.7-0.6-2.7-2.7c-0.1-2.4,0.6-3.3,3-2.9c0.6,0.1,1.3,0,2,0
		c3.8,0,4.4,0.7,3.7,4.5c-0.2,0.9-0.6,1.1-1.3,1.1C100,70.1,99,70.1,98,70.1z"/>
	<path class="st19" d="M88.3,70.1c-0.2,0-0.5,0-0.7,0c-3.6,0-4.4-1-3.6-4.6c0.2-0.9,0.7-1,1.4-1c1.2,0,2.5,0,3.7,0
		c3.4,0,4.5,1.5,3.5,4.8c-0.2,0.7-0.7,0.8-1.3,0.8C90.2,70.1,89.3,70.1,88.3,70.1z"/>
	<path class="st20" d="M146.2,57c-0.4,0-0.8-0.1-1.2,0c-2.4,0.4-3.2-0.4-3.1-3c0.1-2,0.5-2.9,2.6-2.6c0.9,0.1,1.8,0,2.7,0
		c3.6,0,4.2,0.8,3.6,4.4c-0.2,0.9-0.6,1.1-1.3,1C148.3,57,147.3,57,146.2,57z"/>
	<path class="st17" d="M142.7,58c0.2,0,0.3,0,0.5,0c4.1,0,4.2,0.2,3.7,4.3c-0.1,1-0.5,1.3-1.4,1.2c-2,0-3.9-0.1-5.9,0
		c-1.2,0-1.5-0.5-1.5-1.6C137.9,58,137.9,58,142.7,58z"/>
	<path class="st17" d="M113.5,63.5c-0.3,0-0.6,0-1,0c-3.2,0-4.4-1.8-3.4-4.8c0.3-0.8,0.8-0.7,1.3-0.7c2,0,4.1,0,6.1,0
		c1.1,0,1.4,0.5,1.3,1.5c0,0.4-0.1,0.8,0,1.2c0.5,2.4-0.7,3.2-2.9,2.8C114.5,63.4,114,63.5,113.5,63.5z"/>
	<path class="st17" d="M84.6,63.5c-0.5,0-0.7,0-1,0c-3.4,0-4.4-1.3-3.5-4.7c0.2-1,0.8-0.8,1.5-0.8c1.4,0,2.8,0.1,4.1,0
		c2.4-0.3,3.2,0.4,3.3,3.1C89,65.4,85.8,62.7,84.6,63.5z"/>
	<path class="st20" d="M78.4,57c-0.2,0-0.5,0-0.7,0c-3.4,0-4.2-1-3.4-4.5c0.2-0.9,0.8-0.9,1.4-0.9c2,0,3.9,0,5.9,0
		c1,0,1.4,0.3,1.5,1.4C83.3,57,83.4,57,78.4,57z"/>
	<path class="st20" d="M113.5,76.6c-0.5,0-1-0.1-1.5,0c-2.3,0.4-3.1-0.4-3-2.9c0.1-2.2,0.6-3,2.7-2.7c1,0.1,2.1,0.2,3.2,0
		c2.3-0.3,3.2,0.5,3,2.9C117.7,76.6,117.9,76.6,113.5,76.6z"/>
	<path class="st21" d="M142.7,71.1c0.2,0,0.5,0,0.7,0c3.5,0,4.2,1,3.5,4.5c-0.2,0.9-0.7,0.9-1.4,0.9c-2,0-3.9-0.1-5.9,0
		c-1.2,0.1-1.5-0.5-1.5-1.6C137.9,71.1,137.9,71.1,142.7,71.1z"/>
	<path class="st22" d="M107.6,57c-0.3,0-0.6,0-1,0c-3.2,0-4.4-1.7-3.4-4.7c0.3-0.9,1-0.7,1.6-0.7c1.9,0,3.7,0.1,5.6,0
		c1.4-0.1,1.6,0.5,1.6,1.7c0.1,3.8,0.1,3.8-3.6,3.8C108.1,57,107.9,57,107.6,57z"/>
	<path class="st20" d="M136.6,57c-0.5,0-1-0.1-1.5,0c-2.4,0.4-3.1-0.5-3-2.9c0.1-1.9,0.4-2.9,2.5-2.6c1.5,0.2,3.1,0.1,4.7,0
		c1.3-0.1,1.6,0.4,1.7,1.7C141.1,57,141.1,57,136.6,57z"/>
	<path class="st22" d="M151.9,63.5c-0.3,0-0.7,0-1,0c-1-0.2-2.6,0.6-2.9-0.5c-0.5-1.3-0.2-2.9-0.1-4.4c0-0.8,0.8-0.6,1.4-0.6
		c1.5,0,3-0.1,4.4,0c0.9,0.1,2.3-0.6,2.6,0.5c0.4,1.4,0.3,2.9,0,4.4c-0.1,0.6-0.7,0.5-1.2,0.5C154.1,63.5,153,63.5,151.9,63.5z"/>
	<path class="st20" d="M84.6,71.1c0.5,0,1,0.1,1.5,0c2.4-0.4,3,0.7,2.9,2.9c-0.1,1.9-0.4,2.9-2.5,2.6c-1.2-0.2-2.4-0.1-3.6,0
		c-1,0.1-1.6-0.3-2.1-1.2c-1.5-2.8-0.6-4.3,2.5-4.3C83.6,71.1,84.1,71.1,84.6,71.1z"/>
	<path class="st23" d="M88.1,57c-0.2,0-0.5,0-0.7,0c-3.2,0-4.4-1.7-3.4-4.8c0.3-0.8,0.8-0.7,1.3-0.7c2,0,3.9,0,5.9,0
		c1.1,0,1.4,0.5,1.3,1.5c0,0.5-0.1,1,0,1.5c0.3,2-0.3,2.9-2.5,2.6C89.4,56.9,88.7,57,88.1,57z"/>
	<path class="st24" d="M97.8,57c-0.2,0-0.5,0-0.7,0c-3.3,0-4.2-1.2-3.4-4.6c0.2-0.9,0.8-0.9,1.4-0.9c1.8,0,3.6,0.1,5.4,0
		c1.4-0.1,1.8,0.4,1.8,1.8C102.3,57,102.3,57,97.8,57z"/>
	<path class="st25" d="M123.3,63.5c-0.3,0-0.7,0-1,0c-3.3,0-4.4-1.6-3.4-4.7c0.3-1,0.9-0.7,1.5-0.7c1.8,0,3.6,0.1,5.4,0
		c1.3-0.1,1.6,0.4,1.7,1.7C127.6,63.5,127.6,63.5,123.3,63.5z"/>
	<path class="st25" d="M103.8,63.5c-0.2,0-0.3,0-0.5,0c-4.1,0-4.2-0.2-3.8-4.2c0.1-0.9,0.4-1.3,1.3-1.3c1.8,0,3.6,0.1,5.4,0
		c1.5-0.1,1.9,0.4,1.9,1.9C108.1,63.5,108.2,63.5,103.8,63.5z"/>
	<path class="st25" d="M93.9,58c0.4,0,0.6,0,0.7,0c4,0,4,0,3.8,3.9c-0.1,1.1-0.3,1.6-1.5,1.6c-1.3-0.1-2.6-0.2-3.9,0
		c-2.5,0.4-3.2-0.6-3.2-3.1C89.7,56.2,92.7,58.7,93.9,58z"/>
	<path class="st25" d="M133,58c0.2,0,0.5,0,0.7,0c3.2,0,4.4,1.7,3.4,4.8c-0.3,0.8-0.8,0.7-1.3,0.7c-1.9,0-3.8-0.1-5.6,0
		c-1.4,0.1-1.6-0.6-1.6-1.8c-0.1-3.7-0.1-3.7,3.7-3.8C132.5,58,132.8,58,133,58z"/>
	<path class="st24" d="M94,76.6c-0.2,0-0.5,0-0.7,0c-3.3,0-4.4-1.6-3.4-4.7c0.3-0.9,0.9-0.7,1.5-0.8c1.8,0,3.6,0,5.4,0
		c1.1,0,1.6,0.2,1.7,1.5C98.7,76.6,98.7,76.6,94,76.6z"/>
	<path class="st24" d="M103.7,76.6c-0.2,0-0.5,0-0.7,0c-3.4,0-4.2-1.1-3.4-4.5c0.2-0.9,0.7-1,1.4-1c2,0,3.9,0,5.9,0
		c0.9,0,1.4,0.3,1.3,1.2c0,0.6-0.1,1.2,0,1.7c0.3,2-0.3,2.9-2.4,2.6C105,76.5,104.4,76.6,103.7,76.6z"/>
	<path class="st17" d="M123.2,76.6c-0.5,0-0.8,0-1,0c-3.1,0-4.4-1.9-3.3-4.8c0.3-0.8,0.8-0.7,1.4-0.7c1.4,0,2.8,0.1,4.2,0
		c2.5-0.3,3.1,0.5,3.1,3C127.6,78.5,124.5,75.9,123.2,76.6z"/>
	<path class="st24" d="M132.7,76.6c-0.2,0-0.3,0-0.5,0c-4,0-3.9,0-3.6-4.1c0.1-1,0.3-1.5,1.4-1.4c1.2,0.1,2.4,0,3.7,0
		c3.4,0,4.4,1.4,3.5,4.7c-0.2,0.8-0.7,0.8-1.3,0.8C134.8,76.6,133.8,76.6,132.7,76.6z"/>
	<path class="st24" d="M117,57c-0.2,0-0.5,0-0.7,0c-1.1-0.2-2.7,0.6-3.1-0.5c-0.5-1.3-0.2-2.9-0.1-4.3c0-0.9,0.8-0.6,1.3-0.7
		c1.2,0,2.4,0,3.7,0c3.6,0,4.2,0.8,3.5,4.5c-0.2,0.9-0.6,1-1.3,1C119.2,57,118.1,57,117,57z"/>
	<path class="st24" d="M126.8,57c-0.2,0-0.3,0-0.5,0c-4,0-3.9,0-3.6-4.1c0.1-1,0.4-1.5,1.4-1.4c1.2,0.1,2.4,0,3.7,0
		c3.3,0,4.4,1.5,3.5,4.7C131,57,130.5,57,130,57C128.9,57,127.8,57,126.8,57z"/>
	<path class="st17" d="M156.1,51.6c0.3,0,0.6,0.1,1,0.1c3.4,0,3.5,0.2,3.2,3.7c-0.1,1.2-0.6,1.8-1.8,1.7c-1.8-0.1-3.6-0.1-5.4,0
		c-1.1,0-1.4-0.5-1.4-1.5C151.8,50.6,150.9,51.6,156.1,51.6z"/>
	<path class="st26" d="M113.7,45.7c0.5,0,1,0,1.5,0c2.5,0,3.5,1.7,2.6,4.1c-0.3,0.7-0.8,0.7-1.4,0.7c-1.5,0-2.9,0-4.4,0
		c-2.9,0-3.6-1-2.9-3.8c0.2-0.7,0.6-0.9,1.2-0.9C111.4,45.8,112.6,45.8,113.7,45.7L113.7,45.7z"/>
	<path class="st27" d="M118.9,48c-0.5-2,0.5-2.5,2.2-2.2c1.3,0.2,2.6,0.4,3.9,0.3c2.3-0.2,2.5,0.9,2.4,2.7c-0.1,1.2-0.4,1.8-1.7,1.7
		c-1.5-0.1-3-0.1-4.4,0C119.3,50.7,118.4,50.1,118.9,48z"/>
	<path class="st28" d="M75.1,64.5c2.4,0,4.3,0,6.2,0c1.3,0,1.6,0.5,1.7,1.7c0.2,3.9,0,4.1-3.7,3.9c-0.9,0-1.5-0.2-2-1.1
		C76.7,67.6,76,66.3,75.1,64.5z"/>
	<path class="st29" d="M104.2,46.1c0.3,0,0.7,0,1,0c3.1-0.1,3.3,0.2,3,3.2c-0.1,1-0.5,1.2-1.4,1.2c-2,0-3.9,0-5.9,0
		c-1.8,0-1.3-1.3-1.3-2.2c0-1-0.2-2.2,1.5-2.1C102.1,46.3,103.2,46.2,104.2,46.1C104.2,46.2,104.2,46.1,104.2,46.1z"/>
	<path class="st30" d="M132.7,50.5c-0.6,0-1.2-0.1-1.7,0c-2.3,0.4-2.4-0.9-2.4-2.7c0-2.3,1.5-1.6,2.6-1.6c1.3,0,2.6,0.4,3.9,0.4
		c1.8-0.1,2.1,0.7,2.1,2.3c0,1.9-1.2,1.5-2.3,1.5C134.1,50.5,133.4,50.5,132.7,50.5z"/>
	<path class="st30" d="M161.6,41.8c1.2,0,5.8,2.9,5.6,3.3c-0.7,1.2-0.7,3.1-2.5,3.5c-0.8,0.2-5.4-2.8-5.2-3.1
		C160.1,44.1,160.4,42.6,161.6,41.8z"/>
	<path class="st24" d="M115.8,37.8c-0.6,0-0.8,0-1.1,0c-2.4,0-3.8-2.2-2.7-4.4c0.3-0.6,0.8-0.5,1.2-0.5c0.8,0,1.6,0,2.5,0
		c3.1,0,4,1,3.1,4.1C118.3,38.9,116.5,37.2,115.8,37.8z"/>
	<path class="st27" d="M71.5,45.3c0,0.6-4.7,3.6-5.4,3.3c-1.5-0.6-1.7-2.2-2.3-3.5c-0.2-0.5,4.2-3.6,5.2-3.3
		C70.8,42.2,70.5,44.3,71.5,45.3z"/>
	<path class="st31" d="M76.8,43.4c-1.7-0.3-1.1-2-1.6-3c-0.3-0.6-0.7-1.6,0.7-1.8c1-0.2,2.1-0.4,3-0.9c2.1-0.9,2.7,0,3.2,1.9
		c0.5,1.8,0.2,2.5-1.7,2.7C79.2,42.6,78.1,43.1,76.8,43.4z"/>
	<path class="st29" d="M86.8,82c4.3-1.4,8.1-1.7,12-2.3c1-0.1,1.7,0.1,1.5,1.2c-0.2,0.9,0.8,2.6-0.9,2.5C95.3,83.2,91.3,83,86.8,82z
		"/>
	<path class="st32" d="M143.7,37.3c-0.8,1.1,0.2,3.6-2,2.9c-1.7-0.6-4.8,1.3-5.1-2.2c-0.1-1.3-0.5-3.7,2.1-3
		C140.4,35.4,143.1,34.2,143.7,37.3z"/>
	<path class="st33" d="M92.3,34.8c2.8,0.2,2.3,2.4,2.1,3.5c-0.6,2.9-3.4,1.5-5.2,1.9c-2.3,0.5-1.8-2.1-1.6-3.2
		C87.9,33.7,91.1,36.3,92.3,34.8z"/>
	<path class="st29" d="M156.2,39.9c-1.3,1.1,0.1,3.9-2.4,3.3c-1.8-0.4-4.6,0.3-5.1-2.3c-0.1-0.8-0.4-3.6,1.9-3.3
		C152.4,37.9,154.8,37.8,156.2,39.9z"/>
	<path class="st22" d="M71.8,58c1.5,0,2.6,0,3.7,0c3.7,0,4.4,0.8,3.6,4.5c-0.1,0.5-0.2,1-0.8,0.9c-1.4-0.2-3.1,0.8-4.1-0.7
		C73.3,61.3,72.6,59.7,71.8,58z"/>
	<path class="st27" d="M142.4,82.5c-3.2,0.3-6.3,0.6-9.5,0.9c-0.7,0.1-1.8,0.7-2.1-0.5c-0.2-0.9-0.3-2.1,0.1-2.9
		c0.4-0.9,1.5-0.4,2.2-0.2c3.5,0.6,6.9,1.2,10.4,1.8C143.7,82.6,142.7,82.1,142.4,82.5z"/>
	<path class="st31" d="M127,38.4c0.2,0,0,0-0.3,0c-2.8-0.1-3.7-1.7-2.5-4.3c0.3-0.6,0.7-0.6,1.2-0.6c1,0.1,2,0.3,2.9,0.2
		c2.3-0.2,2.9,0.7,2.5,3C130.5,38.5,130.6,38.5,127,38.4z"/>
	<path class="st32" d="M106.8,36.1c0.5,1.7,0,2.4-1.6,2.2c-0.7-0.1-1.5-0.1-2.2,0.1c-2.3,0.6-3.1-0.1-3.1-2.6c0-1.7,0.4-2.2,2-2.1
		c0.6,0,1.2,0,1.7-0.2C106,33,107.3,33.7,106.8,36.1z"/>
	<path class="st30" d="M94,50.5c-0.9,0-1.8,0-2.7,0c-1,0.1-1.5-0.2-1.5-1.3c0-0.9,0-1.8,1.2-2c1.9-0.2,3.9-0.4,5.8-0.6
		c0.9-0.1,1.8-0.1,1.5,1.1c-0.2,1,0.9,2.7-1.2,2.8C96.1,50.6,95.1,50.5,94,50.5L94,50.5z"/>
	<path class="st34" d="M142.5,50.5c-0.9,0-1.8-0.1-2.7,0c-1.8,0.2-1.6-1-1.7-2.2c0-1.5,1-1.3,1.8-1.1c1.9,0.3,3.8,0.7,5.7,1.2
		c0.6,0.1,1.3,0.3,1.2,1.2c-0.1,1-0.8,0.8-1.5,0.9C144.4,50.5,143.5,50.5,142.5,50.5z"/>
	<path class="st16" d="M73.3,54.4c-0.5,0.9,0.6,2.2-0.8,2.6c-1.4,0.4-1.7-0.9-2.2-1.8c-0.2-0.3-0.3-0.6-0.4-0.9
		c-0.3-0.9-1.5-2-0.8-2.5c0.9-0.6,2.5-0.5,3.6-0.1C73.9,52.1,72.8,53.5,73.3,54.4z"/>
	<path class="st35" d="M80.1,49.7c2.5-0.7,5-1.3,7.4-2c0.8-0.2,1.3-0.1,1.3,0.8c0,0.7,0.3,1.8-0.9,1.9c-2.6,0.1-5.1,0-7.7,0
		C80.2,50.3,80.2,50,80.1,49.7z"/>
	<path class="st30" d="M103.6,44.2c-1.4,0.3-1.9-0.2-2-1.9c-0.1-1.9,0.8-2,2.3-2.1c1.9-0.2,2,0.9,2.2,2.3
		C106.3,44.7,104.9,44.2,103.6,44.2z"/>
	<path class="st36" d="M127.2,44.2c-1.3,0-2.5,0.3-2.3-1.6c0.2-1.5,0.3-2.6,2.3-2.4c1.4,0.2,2.2,0.3,2.1,2.1
		C129.3,44.1,128.6,44.6,127.2,44.2z"/>
	<path class="st31" d="M149.1,77.6c-0.8,1.4-1,3.2-2,3.3c-1.6,0-3.2-0.9-4.8-1.5c-0.2-0.1-0.3-0.7-0.3-1.1c0-0.7,0.6-0.7,1-0.7
		C144.9,77.6,146.8,77.6,149.1,77.6z"/>
	<path class="st37" d="M92.4,78.5c-2.8,0.8-5.5,1.5-8.3,2.3c-0.4-3.1-0.4-3.1,2.5-3.1c1.9,0,3.8,0,5.7,0
		C92.4,77.9,92.4,78.2,92.4,78.5z"/>
	<path class="st21" d="M152.3,71.3c-0.8,1.6-1.5,3-2.2,4.4c-0.3,0.6-0.7,1-1.5,0.9c-1-0.1-0.7-0.9-0.8-1.5
		C147.6,70.9,147.6,70.9,152.3,71.3z"/>
	<path class="st38" d="M155.8,64.6c-0.9,1.8-1.7,3.3-2.4,4.8c-0.2,0.5-0.7,0.7-1.2,0.6c-0.5-0.2-0.4-0.6-0.4-1c0-0.3,0-0.6,0-1
		C151.7,64.3,151.7,64.3,155.8,64.6z"/>
	<path class="st24" d="M115.5,39.7c2.1-0.5,2,0.8,2.1,2.2c0.2,2-0.9,1.9-2.4,2c-1.8,0.1-1.8-0.9-1.9-2.2
		C113.3,40,113.8,39.3,115.5,39.7z"/>
	<path class="st39" d="M91.5,42c2.8-1,2.5,0.8,2.6,1.8c0.2,2.4-1.8,1.2-2.8,1.5c-2.2,0.7-1.4-1.4-1.5-2.1
		C89.4,41.2,91.2,42.1,91.5,42z"/>
	<path class="st18" d="M139.1,41.9c0.5,0.3,2.4-0.8,2.2,1.3c-0.1,0.7,0.6,2.6-1.3,2.1c-1-0.3-3.2,1-3-1.5
		C137,42.9,136.5,41.1,139.1,41.9z"/>
	<path class="st40" d="M153.1,45.6c-0.5,1.2-0.2,2.8-1.5,2.4c-1.1-0.3-3.1,0.4-3.1-1.8c0-0.7-0.1-2.3,1.4-1.9
		C151,44.5,152.5,44.4,153.1,45.6z"/>
	<path class="st41" d="M82.6,46.3c-0.5,1.8-2.2,1.4-3.4,1.7C78,48.3,78,46.9,78,46.1c-0.1-2.2,1.9-1.5,3-1.8
		C82.5,43.9,81.9,45.6,82.6,46.3z"/>
	<path class="st42" d="M67.8,50.4c3.1-2.7,3.6-2.7,4.6,0C70.9,50.4,69.5,50.4,67.8,50.4z"/>
	<path class="st43" d="M158.6,50.5c0.9-2.8,0.9-2.8,4.6-0.2C161.5,50.7,160.1,50.5,158.6,50.5z"/>
	<path class="st44" d="M133.5,77.6c2.1,0,4.2,0,6.3,0c0.6,0,1.2,0,1.1,0.8c-0.1,1-0.7,0.5-1.3,0.4c-2.1-0.3-4.1-0.6-6.2-1
		C133.5,77.8,133.5,77.7,133.5,77.6z"/>
	<path class="st45" d="M152.2,50.5c-1.3,0-2.5,0-3.6,0c-0.5,0-0.7-0.3-0.7-0.8c0.1-0.6,0.5-0.6,0.9-0.5
		C149.9,49.6,151.2,49.6,152.2,50.5z"/>
	<path class="st46" d="M159.2,58c-0.5,0.9-0.8,1.5-1.4,2.6C157.6,59.1,157.1,58,159.2,58z"/>
	<path class="st47" d="M93.9,78.2c1-0.8,2-0.6,3.1-0.2C96,78.1,95,78.2,93.9,78.2z"/>
	<path class="st48" d="M82.9,79.4c-0.6-0.5-1.1-1-0.7-1.4c0.4-0.5,0.8-0.1,0.8,0.5C83,78.6,83,78.9,82.9,79.4z"/>
	<path class="st49" d="M161.4,53.2c-0.1-0.7-0.4-1.4,0.4-1.5c0.7-0.1,0.4,0.5,0.2,0.8C161.9,52.7,161.7,52.9,161.4,53.2z"/>
	<path class="st4" d="M146.4,112.2c0-0.9,0-1.6,0-2.9C147,110.6,147.1,111.3,146.4,112.2z"/>
</g>
<g>
	<g>
		<path class="st50" d="M226.9,78.5v5.3c0,2,0,3.3,0.1,3.9c0.1,0.6,0.3,1.1,0.8,1.4c0.4,0.3,1.2,0.4,2.3,0.4h0.8v0.9h-11.5v-0.9h0.7
			c1.1,0,1.8-0.1,2.2-0.4c0.4-0.3,0.7-0.7,0.8-1.3s0.2-1.9,0.2-4V71.5c0-2-0.1-3.3-0.2-3.9c-0.1-0.6-0.4-1-0.7-1.2
			c-0.4-0.2-1.2-0.3-2.5-0.3h-0.5v-0.9l3.2-0.1c2.5-0.1,4.5-0.1,5.9-0.1c2.6,0,4.6,0.2,6,0.6s2.6,1.1,3.5,2.2c0.9,1,1.3,2.4,1.3,3.9
			c0,1.4-0.3,2.6-0.9,3.6c-0.6,1.1-1.5,1.9-2.6,2.4c-1.1,0.5-3.2,0.8-6,0.8H226.9z M226.9,77.6h1.8c1.4,0,2.6-0.1,3.5-0.4
			c0.9-0.3,1.6-0.9,2.2-1.8c0.6-0.9,0.9-2.1,0.9-3.4c0-2.1-0.5-3.6-1.5-4.6s-2.7-1.5-5-1.5c-0.8,0-1.5,0-1.9,0.1V77.6z"/>
		<path class="st50" d="M267.6,90.4h-6.8c-1.2-0.8-3-3-5.5-6.6c-0.8-1.1-1.6-2.2-2.5-3.3s-1.4-1.7-1.8-1.9c-0.3-0.2-0.8-0.3-1.5-0.3
			h-1v5.6c0,2,0,3.3,0.1,3.9c0.1,0.6,0.3,1.1,0.7,1.4c0.4,0.3,1.2,0.4,2.3,0.4h1.2v0.9h-12.1v-0.9h0.8c1.1,0,1.8-0.1,2.2-0.4
			c0.4-0.3,0.7-0.7,0.8-1.3s0.2-1.9,0.2-4V71.5c0-2-0.1-3.3-0.2-3.9c-0.1-0.6-0.4-1-0.7-1.2c-0.4-0.2-1.2-0.3-2.5-0.3h-0.4v-0.9
			l3.6-0.2c2.4-0.1,4.3-0.2,5.7-0.2c2.4,0,4.4,0.2,5.9,0.7c1.5,0.4,2.7,1.2,3.7,2.2c0.9,1,1.4,2.2,1.4,3.6c0,1.6-0.6,3.1-1.8,4.2
			c-1.2,1.2-3,1.9-5.3,2.2c1.1,0.5,2.7,2.3,5.1,5.5c1.9,2.6,3.4,4.2,4.5,5c1.1,0.8,2.4,1.2,3.9,1.3V90.4z M248.6,77.4
			c0.9,0,1.9-0.1,2.9-0.1c1,0,1.9-0.2,2.6-0.4c0.7-0.2,1.3-0.5,1.8-1c0.5-0.4,0.8-1,1.1-1.7c0.3-0.7,0.4-1.5,0.4-2.6
			c0-1.8-0.4-3.2-1.3-4.3c-0.9-1.1-2.8-1.6-5.8-1.6c-0.5,0-1,0-1.6,0.1V77.4z"/>
		<path class="st50" d="M289.8,82.6h0.9l-0.5,7.8h-20.9v-0.9h0.5c1.2,0,2.1-0.2,2.4-0.5c0.4-0.3,0.6-0.8,0.7-1.3
			c0.1-0.5,0.1-1.8,0.1-3.9V71.5c0-1.9-0.1-3.2-0.2-3.8c-0.1-0.6-0.3-1-0.7-1.3c-0.4-0.2-1.2-0.4-2.4-0.4v-0.9h18l0.6,6.3h-0.9
			c-0.4-1.8-0.9-3-1.5-3.7c-0.6-0.7-1.3-1.2-2.1-1.4c-0.8-0.2-2.1-0.3-3.8-0.3h-3.5v10.6h2.7c1.2,0,2.1-0.1,2.6-0.3
			c0.5-0.2,0.8-0.5,1-1c0.2-0.4,0.2-1.3,0.2-2.5h0.9v8.6h-0.9c0-1.4-0.1-2.3-0.4-2.8s-0.6-0.8-1-0.9c-0.5-0.1-1.2-0.2-2.3-0.2h-2.8
			v6c0,3,0.2,4.7,0.6,5.3s1.4,0.8,3.1,0.8h1.9c1.3,0,2.4-0.2,3.3-0.5c0.9-0.3,1.7-1,2.4-2.1C288.8,85.9,289.4,84.4,289.8,82.6z"/>
		<path class="st50" d="M313,65.2l0.2,6.3h-0.9c-0.2-1.4-0.6-2.5-1.2-3.4c-0.6-0.9-1.2-1.5-1.9-1.7c-0.7-0.2-1.8-0.3-3.3-0.3H301
			v10.7h2.4c1.5,0,2.5-0.3,3-0.8c0.5-0.5,0.8-1.5,0.8-3.1h0.9v8.9h-0.9c0-1.1-0.1-1.9-0.3-2.6c-0.2-0.6-0.5-1.1-1-1.3
			c-0.4-0.2-1.3-0.3-2.5-0.3H301v6.3c0,2,0,3.3,0.1,3.9c0.1,0.6,0.3,1.1,0.8,1.4c0.4,0.3,1.2,0.4,2.3,0.4h0.9v0.9h-11.7v-0.9h0.8
			c1.1,0,1.8-0.1,2.2-0.4c0.4-0.3,0.7-0.7,0.8-1.3c0.1-0.6,0.2-1.9,0.2-4V71.5c0-2-0.1-3.3-0.2-3.9c-0.1-0.6-0.4-1-0.7-1.2
			c-0.4-0.2-1.2-0.3-2.5-0.3h-0.4v-0.9H313z"/>
		<path class="st50" d="M335.5,82.6h0.9l-0.5,7.8H315v-0.9h0.5c1.2,0,2.1-0.2,2.4-0.5c0.4-0.3,0.6-0.8,0.7-1.3
			c0.1-0.5,0.1-1.8,0.1-3.9V71.5c0-1.9-0.1-3.2-0.2-3.8c-0.1-0.6-0.3-1-0.7-1.3c-0.4-0.2-1.2-0.4-2.4-0.4v-0.9h18l0.6,6.3h-0.9
			c-0.4-1.8-0.9-3-1.5-3.7c-0.6-0.7-1.3-1.2-2.1-1.4c-0.8-0.2-2.1-0.3-3.8-0.3h-3.5v10.6h2.7c1.2,0,2.1-0.1,2.6-0.3
			c0.5-0.2,0.8-0.5,1-1c0.2-0.4,0.2-1.3,0.2-2.5h0.9v8.6h-0.9c0-1.4-0.1-2.3-0.4-2.8s-0.6-0.8-1-0.9c-0.5-0.1-1.2-0.2-2.3-0.2h-2.8
			v6c0,3,0.2,4.7,0.6,5.3s1.4,0.8,3.1,0.8h1.9c1.3,0,2.4-0.2,3.3-0.5c0.9-0.3,1.7-1,2.4-2.1C334.4,85.9,335,84.4,335.5,82.6z"/>
		<path class="st50" d="M338.9,66.1v-0.9h11.5v0.9h-0.5c-1.2,0-2,0.1-2.4,0.3c-0.4,0.2-0.6,0.6-0.8,1.1c-0.1,0.6-0.2,1.9-0.2,4v12.4
			c0,2,0,3.3,0.1,3.9c0.1,0.6,0.3,1.1,0.7,1.4c0.4,0.3,1.2,0.4,2.3,0.4h0.7v0.9h-11.5v-0.9h0.7c1.1,0,1.8-0.1,2.2-0.4
			c0.4-0.3,0.7-0.7,0.8-1.3s0.2-1.9,0.2-4V71.5c0-2-0.1-3.3-0.2-3.9c-0.1-0.6-0.4-1-0.7-1.2c-0.4-0.2-1.2-0.3-2.5-0.3H338.9z"/>
		<path class="st50" d="M353.6,71.3h-0.9l0.1-6.1h24.4l0.1,6.1h-0.8c-0.3-1.7-0.7-2.9-1.2-3.6c-0.5-0.7-1-1.2-1.6-1.4
			c-0.6-0.2-1.5-0.3-2.9-0.3h-4v17.8c0,2,0,3.3,0.1,3.9s0.3,1.1,0.8,1.4c0.4,0.3,1.2,0.4,2.3,0.4h1.2v0.9h-12.6v-0.9h1.3
			c1.1,0,1.8-0.1,2.2-0.4c0.4-0.3,0.7-0.7,0.8-1.3s0.2-1.9,0.2-4V66.1h-3.7c-1.6,0-2.7,0.1-3.3,0.2c-0.6,0.2-1.1,0.6-1.6,1.4
			C354.3,68.5,353.9,69.7,353.6,71.3z"/>
		<path class="st50" d="M398.9,65.2h8.4v0.9c-1.1,0.1-1.9,0.3-2.5,0.8c-0.6,0.4-0.9,0.9-1,1.4c-0.1,0.5-0.2,1.6-0.2,3.1v8.4
			c0,2.1-0.1,3.7-0.2,4.8s-0.7,2.1-1.4,3.1s-1.9,1.8-3.4,2.4c-1.4,0.6-3.1,0.9-5,0.9c-2.2,0-4.1-0.4-5.7-1.1c-1.6-0.8-2.7-1.7-3.3-3
			c-0.7-1.2-1-2.8-1-4.9l0-2.6v-7.8c0-2-0.1-3.3-0.2-3.9c-0.1-0.6-0.4-1-0.7-1.2c-0.4-0.2-1.2-0.3-2.5-0.3h-0.6v-0.9H391v0.9h-0.5
			c-1.2,0-2,0.1-2.4,0.3c-0.4,0.2-0.6,0.6-0.8,1.1s-0.2,1.9-0.2,4v7.9c0,2.7,0.1,4.7,0.4,5.9c0.3,1.2,1,2.2,2.1,3s2.7,1.3,4.7,1.3
			c1.5,0,2.9-0.3,4.2-0.9c1.3-0.6,2.2-1.3,2.8-2.2c0.6-0.9,1-1.7,1.1-2.7c0.1-0.9,0.2-2.3,0.2-4.3V71c0-1.4-0.1-2.4-0.2-3
			c-0.2-0.6-0.5-1-1-1.4c-0.5-0.3-1.4-0.5-2.5-0.6V65.2z"/>
		<path class="st50" d="M436.2,90.4h-6.8c-1.2-0.8-3-3-5.5-6.6c-0.8-1.1-1.6-2.2-2.5-3.3s-1.4-1.7-1.8-1.9c-0.3-0.2-0.8-0.3-1.5-0.3
			h-1v5.6c0,2,0,3.3,0.1,3.9c0.1,0.6,0.3,1.1,0.7,1.4c0.4,0.3,1.2,0.4,2.3,0.4h1.2v0.9h-12.1v-0.9h0.8c1.1,0,1.8-0.1,2.2-0.4
			c0.4-0.3,0.7-0.7,0.8-1.3s0.2-1.9,0.2-4V71.5c0-2-0.1-3.3-0.2-3.9c-0.1-0.6-0.4-1-0.7-1.2c-0.4-0.2-1.2-0.3-2.5-0.3h-0.4v-0.9
			l3.6-0.2c2.4-0.1,4.3-0.2,5.7-0.2c2.4,0,4.4,0.2,5.9,0.7c1.5,0.4,2.7,1.2,3.7,2.2c0.9,1,1.4,2.2,1.4,3.6c0,1.6-0.6,3.1-1.8,4.2
			c-1.2,1.2-3,1.9-5.3,2.2c1.1,0.5,2.7,2.3,5.1,5.5c1.9,2.6,3.4,4.2,4.5,5c1.1,0.8,2.4,1.2,3.9,1.3V90.4z M417.1,77.4
			c0.9,0,1.9-0.1,2.9-0.1c1,0,1.9-0.2,2.6-0.4c0.7-0.2,1.3-0.5,1.8-1c0.5-0.4,0.8-1,1.1-1.7c0.3-0.7,0.4-1.5,0.4-2.6
			c0-1.8-0.4-3.2-1.3-4.3c-0.9-1.1-2.8-1.6-5.8-1.6c-0.5,0-1,0-1.6,0.1V77.4z"/>
		<path class="st50" d="M453.1,81.1h-9.6l-0.7,1.6c-1,2.3-1.4,3.8-1.4,4.5c0,0.8,0.3,1.3,0.8,1.7s1.2,0.6,2,0.6v0.9h-7.5v-0.9
			c1.1-0.2,1.9-0.6,2.5-1.2c0.5-0.6,1.2-1.9,2-3.9c0.1-0.2,0.4-0.9,0.9-2.2l7.3-17.5h0.7l8.4,20l1.2,2.6c0.3,0.6,0.6,1.1,1,1.4
			c0.4,0.3,1.1,0.6,2,0.6v0.9h-9.9v-0.9c1.2,0,2-0.1,2.5-0.3c0.4-0.2,0.6-0.5,0.6-1.1c0-0.3-0.3-1.1-0.9-2.4L453.1,81.1z
			 M452.8,80.3l-4.5-10.7l-4.4,10.7H452.8z"/>
		<path class="st50" d="M473.7,65.4l4.1-0.2c3.5-0.2,5.8-0.3,7-0.3c3.7,0,6.7,0.6,8.7,1.7c2.1,1.1,3.7,2.7,4.7,4.6s1.5,4.2,1.5,6.8
			c0,1.8-0.3,3.5-0.8,5.1c-0.6,1.5-1.3,2.8-2.3,3.8c-1,1-2.1,1.8-3.4,2.3c-1.3,0.5-2.5,0.9-3.7,1c-1.2,0.1-2.8,0.2-4.9,0.2h-11.2
			v-0.9h1c1.1,0,1.8-0.1,2.2-0.4c0.4-0.3,0.7-0.7,0.8-1.3c0.1-0.6,0.2-1.9,0.2-4V71.7c0-2-0.1-3.3-0.2-3.9c-0.1-0.6-0.4-1-0.7-1.2
			c-0.4-0.2-1.2-0.3-2.5-0.3h-0.7V65.4z M481.4,65.9v16.8c0,2.5,0,4.1,0.1,4.8c0.1,0.7,0.4,1.2,0.8,1.5c0.5,0.3,1.4,0.4,2.9,0.4
			c2.2,0,4-0.3,5.4-0.9c1.4-0.6,2.6-1.8,3.5-3.5s1.4-4,1.4-6.8c0-2.1-0.3-4-0.8-5.7c-0.6-1.7-1.3-3-2.4-4.1c-1-1-2.2-1.8-3.4-2.1
			c-1.3-0.4-2.9-0.6-4.8-0.6C483.4,65.8,482.4,65.9,481.4,65.9z"/>
		<path class="st50" d="M504.1,77.6c0-3.9,1.3-7,3.9-9.4s5.8-3.5,9.7-3.5c3.9,0,7.2,1.2,9.8,3.5c2.6,2.3,3.9,5.5,3.9,9.5
			c0,3.9-1.3,7.1-3.8,9.5c-2.5,2.4-5.8,3.6-9.9,3.6c-4,0-7.3-1.2-9.8-3.6C505.4,84.8,504.1,81.6,504.1,77.6z M508.3,77.8
			c0,4,0.8,7.1,2.4,9.1c1.6,2,4,3,7.3,3c2.8,0,5.1-1,6.7-3s2.5-5.1,2.5-9.1c0-3.9-0.8-6.9-2.4-9s-4-3.1-7.1-3.1c-3,0-5.4,1-7,3.1
			C509.1,70.8,508.3,73.8,508.3,77.8z"/>
	</g>
</g>
<g>
	<g>
		<path class="st51" d="M267.8,187.7l-53.7-71.1v52.7c0,4.4,0.2,7.2,0.6,8.6c0.4,1.4,1.7,2.6,3.7,3.8c2,1.2,5,1.7,9.1,1.7v2.6h-28.3
			v-2.6c3.6-0.3,6.4-0.9,8.3-2c1.9-1.1,3-2.2,3.4-3.4c0.4-1.2,0.5-4.1,0.5-8.7V129c0-5.8-0.3-9.7-0.8-11.7c-0.5-2-1.4-3.2-2.6-3.8
			s-3.8-0.8-7.9-0.8V110h22.4l44.9,59.4V124c0-3.4-0.3-5.7-1-7.1s-2.1-2.4-4.2-3.2c-2.1-0.8-4.7-1.2-7.7-1.2V110h27.5v2.6
			c-3.2,0.3-5.7,0.9-7.6,1.8c-1.8,1-3,2.1-3.5,3.5c-0.5,1.4-0.8,3.7-0.8,6.9v62.8H267.8z"/>
		<path class="st51" d="M329.5,158h-28.8l-2,4.8c-2.9,7-4.4,11.5-4.4,13.7c0,2.3,0.8,4,2.3,5.2c1.5,1.2,3.5,1.8,6,1.8v2.6h-22.6
			v-2.6c3.4-0.5,5.9-1.7,7.5-3.6c1.6-1.8,3.6-5.7,5.9-11.7c0.2-0.6,1.1-2.7,2.7-6.5l22.1-52.7h2.2l25.4,60.3l3.5,7.9
			c0.8,1.8,1.8,3.2,3.2,4.2c1.3,1,3.3,1.7,6,1.9v2.6h-29.8v-2.6c3.7,0,6.1-0.3,7.4-0.8c1.3-0.5,1.9-1.6,1.9-3.2
			c0-0.8-0.9-3.3-2.6-7.3L329.5,158z M328.6,155.4l-13.4-32.3l-13.4,32.3H328.6z"/>
		<path class="st51" d="M354.7,128.3h-2.6l0.4-18.2h73.7l0.4,18.2h-2.4c-0.9-5-2-8.6-3.5-10.8c-1.5-2.2-3.1-3.6-4.8-4.1
			c-1.7-0.5-4.6-0.8-8.8-0.8h-12.2v53.6c0,5.9,0.1,9.8,0.4,11.7c0.3,1.9,1,3.2,2.3,4.1s3.5,1.3,6.9,1.3h3.7v2.6h-37.8v-2.6h3.9
			c3.2,0,5.5-0.4,6.7-1.2c1.2-0.8,2.1-2.1,2.4-3.8c0.4-1.7,0.5-5.8,0.5-12.1v-53.6h-11.2c-4.9,0-8.2,0.2-9.8,0.7
			c-1.7,0.5-3.3,1.9-4.7,4.2C356.6,119.9,355.4,123.5,354.7,128.3z"/>
		<path class="st51" d="M469,158h-28.8l-2,4.8c-2.9,7-4.4,11.5-4.4,13.7c0,2.3,0.8,4,2.3,5.2c1.5,1.2,3.5,1.8,6,1.8v2.6h-22.6v-2.6
			c3.4-0.5,5.9-1.7,7.5-3.6c1.6-1.8,3.6-5.7,5.9-11.7c0.2-0.6,1.1-2.7,2.7-6.5l22.1-52.7h2.2l25.4,60.3l3.5,7.9
			c0.8,1.8,1.8,3.2,3.2,4.2s3.3,1.7,6,1.9v2.6H468v-2.6c3.7,0,6.1-0.3,7.4-0.8s1.9-1.6,1.9-3.2c0-0.8-0.9-3.3-2.6-7.3L469,158z
			 M468,155.4l-13.4-32.3l-13.4,32.3H468z"/>
		<path class="st51" d="M565.4,163.6l-0.6,22.3h-64.5v-2.6h2.2c3.2,0,5.5-0.4,6.7-1.2c1.2-0.8,2.1-2.1,2.4-3.8
			c0.4-1.7,0.5-5.8,0.5-12.1V129c0-6-0.2-9.9-0.5-11.7c-0.4-1.8-1.1-3-2.2-3.6c-1.1-0.7-3.6-1-7.5-1h-1.7V110h36.4v2.6h-3.4
			c-3.7,0-6.2,0.3-7.3,0.9c-1.2,0.6-1.9,1.8-2.3,3.4c-0.4,1.7-0.6,5.7-0.6,12v39.7c0,5.5,0.1,8.9,0.4,10.3c0.3,1.4,1.1,2.5,2.4,3.2
			c1.3,0.8,4.2,1.1,8.5,1.1h5.8c4.7,0,8.1-0.4,10.4-1.2c2.3-0.8,4.4-2.6,6.4-5.4c2-2.8,3.9-7.1,5.6-13.2H565.4z"/>
	</g>
</g>
</svg>
